<svg xmlns="http://www.w3.org/2000/svg" width="94.125" height="107" viewBox="0 0 94.125 107">
  <g id="Group_64" data-name="Group 64" transform="translate(-766.112 -666.582)">
    <g id="Group_61" data-name="Group 61" transform="translate(815.978 698.347)">
      <path id="Path_158" data-name="Path 158" d="M1013.931,942.359V891.409l20.724-12.036a11.484,11.484,0,0,1,3.074-1.276,6.97,6.97,0,0,1,2.757-.145,5.378,5.378,0,0,1,3.581,2.323,8.908,8.908,0,0,1,1.363,5.214v26.2a18.052,18.052,0,0,1-.856,5.374,25.232,25.232,0,0,1-2.345,5.292,25.64,25.64,0,0,1-3.454,4.626,18.356,18.356,0,0,1-4.119,3.339Zm24.526-52.82a2.571,2.571,0,0,0-1.109-2.449,2.625,2.625,0,0,0-2.694.291l-13.562,7.877v34.936l13.562-7.877a7.532,7.532,0,0,0,2.694-2.838,7.454,7.454,0,0,0,1.109-3.737Z" transform="translate(-1013.931 -867.124)" fill="#c7bba4"/>
      <path id="Path_159" data-name="Path 159" d="M1196.647,836.739v.022l3.556-2.065v2.377l-8.467,4.918q0-.843-.009-1.4t-.01-.924v-2.182a5.337,5.337,0,0,1,.254-1.563,7.406,7.406,0,0,1,.7-1.582,8.334,8.334,0,0,1,1.025-1.4,5.323,5.323,0,0,1,1.261-1.034l2.051-1.191a2.239,2.239,0,0,0,.8-.843,2.214,2.214,0,0,0,.329-1.109V827.9a.763.763,0,0,0-.329-.727.779.779,0,0,0-.8.086l-4.685,2.721v-2.377l4.685-2.721a2.977,2.977,0,0,1,1.242-.43,1.736,1.736,0,0,1,1.016.2,1.71,1.71,0,0,1,.687.768,2.906,2.906,0,0,1,.254,1.279v.864a5.357,5.357,0,0,1-.254,1.6,7.733,7.733,0,0,1-1.7,2.945,5.379,5.379,0,0,1-1.242,1.013l-2.088,1.213a2.236,2.236,0,0,0-.8.843,2.212,2.212,0,0,0-.329,1.109l-.019,2.129Z" transform="translate(-1155.943 -824.448)" fill="#c7bba4"/>
    </g>
    <g id="Group_62" data-name="Group 62" transform="translate(766.112 697.893)">
      <path id="Path_160" data-name="Path 160" d="M766.112,873.139V822.19l20.655,12.1a17.592,17.592,0,0,1,3.064,2.3,23.035,23.035,0,0,1,2.747,3.065,27.206,27.206,0,0,1,3.569,6.494,18.88,18.88,0,0,1,1.358,6.8v26.2a9.987,9.987,0,0,1-.853,4.377,5.553,5.553,0,0,1-2.337,2.561,5.814,5.814,0,0,1-3.442.6,10.251,10.251,0,0,1-4.106-1.459Zm24.445-24.257a8.408,8.408,0,0,0-3.79-6.587l-13.517-7.918v34.937l13.517,7.917a2.607,2.607,0,0,0,2.685.3,2.564,2.564,0,0,0,1.105-2.446Z" transform="translate(-766.112 -822.19)" fill="#c7bba4"/>
      <path id="Path_161" data-name="Path 161" d="M948.224,941.9v.022L951.769,944v2.377l-8.439-4.943q0-.843-.01-1.41t-.009-.935v-2.182a2.925,2.925,0,0,1,.253-1.267,1.644,1.644,0,0,1,.694-.771,1.851,1.851,0,0,1,1.022-.2,2.9,2.9,0,0,1,1.256.433l2.044,1.2a.774.774,0,0,0,.8.089.761.761,0,0,0,.328-.726v-.864a2.5,2.5,0,0,0-1.125-1.956l-4.669-2.735v-2.377l4.669,2.735a5.39,5.39,0,0,1,1.238,1.017,7.768,7.768,0,0,1,1.7,2.95,5.321,5.321,0,0,1,.253,1.575v.864a2.965,2.965,0,0,1-.253,1.3,1.7,1.7,0,0,1-.684.766,1.717,1.717,0,0,1-1.013.2,2.966,2.966,0,0,1-1.238-.433l-2.081-1.219a.774.774,0,0,0-.8-.089.761.761,0,0,0-.328.726l-.019,2.107Z" transform="translate(-907.655 -906.491)" fill="#c7bba4"/>
    </g>
    <g id="Group_63" data-name="Group 63" transform="translate(768.286 666.582)">
      <path id="Path_162" data-name="Path 162" d="M776.918,692.285l44.31-25.7,21.392,11.964a12,12,0,0,1,2.73,2.032,7.2,7.2,0,0,1,1.58,2.326,5.346,5.346,0,0,1-.133,4.289,8.755,8.755,0,0,1-3.816,3.816l-22.788,13.219a18.113,18.113,0,0,1-5.124,1.966,25.757,25.757,0,0,1-5.839.629,26.516,26.516,0,0,1-5.844-.672,19.148,19.148,0,0,1-5.075-1.9Zm58.866-5.3a2.524,2.524,0,0,0,1.546-2.2,2.71,2.71,0,0,0-1.673-2.2l-14-7.83-30.384,17.625,14,7.829a7.829,7.829,0,0,0,3.888.913A7.541,7.541,0,0,0,813,700.2Z" transform="translate(-776.918 -666.582)" fill="#c7bba4"/>
      <path id="Path_163" data-name="Path 163" d="M1127.187,779.324l-.019.011,3.671,2.053-2.067,1.2-8.74-4.888q.733-.425,1.212-.714t.8-.474l.526-.305.395-.229.413-.24.564-.327a5.361,5.361,0,0,1,1.493-.567,7.576,7.576,0,0,1,1.743-.192,8.618,8.618,0,0,1,1.754.189,5.556,5.556,0,0,1,1.564.575l2.117,1.184a2.326,2.326,0,0,0,1.154.271,2.241,2.241,0,0,0,1.138-.273l.752-.436a.749.749,0,0,0,.459-.653.8.8,0,0,0-.5-.653l-4.836-2.7,2.067-1.2,4.836,2.7a3.105,3.105,0,0,1,1.028.864,1.765,1.765,0,0,1,.363.984,1.68,1.68,0,0,1-.306.985,2.861,2.861,0,0,1-.978.866l-.752.436a5.375,5.375,0,0,1-1.521.584,7.817,7.817,0,0,1-1.724.192,7.959,7.959,0,0,1-1.735-.189,5.616,5.616,0,0,1-1.536-.57l-2.156-1.206a2.325,2.325,0,0,0-1.154-.271,2.237,2.237,0,0,0-1.138.273l-1.861,1.057Z" transform="translate(-1050.991 -749.949)" fill="#c7bba4"/>
    </g>
  </g>
</svg>
