<svg xmlns="http://www.w3.org/2000/svg" width="100" height="89.453" viewBox="0 0 100 89.453">
  <g id="icon_quote" data-name="icon quote" transform="translate(0 -5.273)" opacity="0.15">
    <g id="Group">
      <g id="Group-2" data-name="Group">
        <path id="Vector" d="M36.719,0H9.766A9.777,9.777,0,0,0,0,9.766V33.2a9.777,9.777,0,0,0,9.766,9.766H22.4C21.956,57.557,16.42,65.143,5.514,66.135A1.953,1.953,0,0,0,3.738,68.08V87.5a1.953,1.953,0,0,0,1.953,1.953c.037,0,.073,0,.11,0,13.459-.757,23.733-5.389,30.537-13.767,6.733-8.29,10.147-20.4,10.147-36V9.766A9.777,9.777,0,0,0,36.719,0Zm5.859,39.678C42.578,68.32,31.146,83.3,7.644,85.4V69.807a19.515,19.515,0,0,0,13.673-8.235c3.33-4.822,5.018-11.739,5.018-20.559a1.953,1.953,0,0,0-1.953-1.953H9.766A5.866,5.866,0,0,1,3.906,33.2V9.766A5.866,5.866,0,0,1,9.766,3.906H33.2v14.46a1.953,1.953,0,0,0,3.906,0V3.921a5.866,5.866,0,0,1,5.469,5.845Z" transform="translate(53.516 5.273)" fill="#fff"/>
      </g>
    </g>
    <g id="Group-3" data-name="Group">
      <g id="Group-4" data-name="Group">
        <path id="Vector-2" data-name="Vector" d="M1.953,0A1.958,1.958,0,1,0,3.906,1.963V1.943A1.945,1.945,0,0,0,1.953,0Z" transform="translate(86.719 28.467)" fill="#fff"/>
      </g>
    </g>
    <g id="Group-5" data-name="Group">
      <g id="Group-6" data-name="Group">
        <path id="Vector-3" data-name="Vector" d="M44.531,17.969a1.953,1.953,0,0,0,1.953-1.953V9.766A9.777,9.777,0,0,0,36.719,0H9.766A9.777,9.777,0,0,0,0,9.766V33.2a9.777,9.777,0,0,0,9.766,9.766H22.4C21.956,57.557,16.42,65.143,5.514,66.135A1.953,1.953,0,0,0,3.738,68.08V87.5a1.953,1.953,0,0,0,1.953,1.953c.037,0,.073,0,.11,0,13.459-.757,23.733-5.389,30.537-13.767,6.733-8.29,10.147-20.4,10.147-36v-7a1.953,1.953,0,0,0-3.906,0v7C42.578,68.32,31.146,83.3,7.645,85.4V69.807a19.516,19.516,0,0,0,13.673-8.235c3.33-4.822,5.018-11.739,5.018-20.559a1.953,1.953,0,0,0-1.953-1.953H9.766A5.866,5.866,0,0,1,3.906,33.2V9.766A5.866,5.866,0,0,1,9.766,3.906H36.719a5.866,5.866,0,0,1,5.859,5.859v6.25A1.953,1.953,0,0,0,44.531,17.969Z" transform="translate(0 5.273)" fill="#fff"/>
      </g>
    </g>
    <g id="Group-7" data-name="Group">
      <g id="Group-8" data-name="Group">
        <path id="Vector-4" data-name="Vector" d="M1.953,0A1.953,1.953,0,0,0,0,1.953v.041a1.953,1.953,0,1,0,3.906,0V1.953A1.953,1.953,0,0,0,1.953,0Z" transform="translate(42.578 27.669)" fill="#fff"/>
      </g>
    </g>
  </g>
</svg>
